PathFileType	4	(X/Y/Z)	c:/Users/goper/Files/vsCode/490R/osim_files/C05/C05_Static.trc
DataRate	CameraRate	NumFrames	NumMarkers	Units                	OrigDataRate	OrigDataStartFrame	OrigNumFrames
250.00	250.00	5	36	mm	250.0	1381	1840
                Frame#	Time	LPSIS			LASIS			LTH1			LTH2			LTH3			LTH4			LLFE			LMFE			LSH1			LSH2			LSH3			LSH4			LLMAL			LMMAL			LCAL			LMTP5			LTOE			LMTP1			RPSIS			RASIS			RTH1			RTH2			RTH3			RTH4			RLFE			RMFE			RSH1			RSH2			RSH3			RSH4			RLMAL			RMMAL			RCAL			RMTP1			RTOE			RMTP5		
		X1	Y1	Z1	X2	Y2	Z2	X3	Y3	Z3	X4	Y4	Z4	X5	Y5	Z5	X6	Y6	Z6	X7	Y7	Z7	X8	Y8	Z8	X9	Y9	Z9	X10	Y10	Z10	X11	Y11	Z11	X12	Y12	Z12	X13	Y13	Z13	X14	Y14	Z14	X15	Y15	Z15	X16	Y16	Z16	X17	Y17	Z17	X18	Y18	Z18	X19	Y19	Z19	X20	Y20	Z20	X21	Y21	Z21	X22	Y22	Z22	X23	Y23	Z23	X24	Y24	Z24	X25	Y25	Z25	X26	Y26	Z26	X27	Y27	Z27	X28	Y28	Z28	X29	Y29	Z29	X30	Y30	Z30	X31	Y31	Z31	X32	Y32	Z32	X33	Y33	Z33	X34	Y34	Z34	X35	Y35	Z35	X36	Y36	Z36

1381	5.52000	-427.53986	1062.78247	413.66257	-234.54343	1023.98676	349.00781	-373.90643	714.43091	280.86966	-369.20782	651.68805	283.63934	-297.39200	713.43054	276.76489	-302.87180	651.97107	280.78598	-335.51746	542.98267	290.57993	-337.19861	522.28558	408.31818	-437.30164	370.15344	277.40710	-431.73093	327.07437	276.86884	-375.69229	370.68369	258.43961	-381.17157	327.50821	262.40344	-396.34482	97.16544	287.56470	-360.02106	108.25159	367.55249	-447.82333	68.35354	343.34341	-262.14264	40.96592	237.92656	-216.96138	65.24831	292.77777	-224.30351	45.52250	341.50430	-420.09885	1067.43384	521.45380	-227.23128	1026.44067	580.15515	-363.74573	717.01514	658.22144	-364.16138	654.01819	655.06140	-289.04529	710.52332	663.78088	-299.89792	648.38513	660.55560	-317.03802	535.42877	645.17639	-343.22876	507.17706	541.31604	-401.84763	386.46219	681.59760	-397.80627	338.09665	679.31116	-341.75449	382.31259	673.77997	-346.65698	335.84296	672.66083	-377.28098	96.29890	649.18848	-364.69858	109.44112	564.25366	-445.51096	68.39526	608.28003	-232.87386	40.93780	557.89191	-207.24397	63.95728	603.47064	-249.91988	33.88930	672.58282
1382	5.52400	-427.56192	1062.80090	413.66202	-234.55255	1024.00049	348.98944	-373.91263	714.43787	280.87338	-369.16876	651.69403	283.58771	-297.36411	713.45197	276.76041	-302.87878	651.96100	280.77841	-335.50934	542.98181	290.56882	-337.19122	522.28033	408.29199	-437.29218	370.14847	277.39420	-431.78485	327.01920	276.86697	-375.69067	370.69611	258.42923	-381.13940	327.51016	262.38327	-396.30508	97.16534	287.54639	-360.01166	108.25675	367.55280	-447.84616	68.37068	343.31049	-262.13660	40.96000	237.92303	-216.97389	65.23189	292.76474	-224.30449	45.50774	341.49927	-420.10492	1067.44092	521.45001	-227.24016	1026.44519	580.13959	-363.69608	717.01086	658.22168	-364.14520	654.03522	655.07532	-289.04819	710.50854	663.74988	-299.85724	648.40723	660.54932	-317.01083	535.43463	645.18335	-343.19821	507.21423	541.26617	-401.81873	386.47467	681.58942	-397.79501	338.10593	679.29816	-341.75058	382.30756	673.78180	-346.64459	335.83859	672.65234	-377.26331	96.29990	649.19220	-364.67300	109.43642	564.24451	-445.50577	68.39803	608.26678	-232.85698	40.94530	557.87921	-207.22591	63.95749	603.46161	-249.79785	34.07580	672.69641
1383	5.52800	-427.55640	1062.80566	413.69058	-234.55725	1024.00122	348.95648	-373.93753	714.42279	280.87491	-369.20108	651.69977	283.62500	-297.40005	713.44165	276.74469	-302.90616	651.95526	280.75415	-335.50720	543.00525	290.56171	-337.20789	522.29205	408.27203	-437.28629	370.15814	277.39572	-431.76675	327.03253	276.85693	-375.67575	370.69983	258.43640	-381.13065	327.50745	262.39694	-396.31924	97.17276	287.55444	-360.00620	108.25614	367.56052	-447.79715	68.36323	343.34964	-262.11810	40.96922	237.92493	-216.92949	65.24947	292.75513	-224.23811	45.54983	341.49365	-420.07745	1067.43018	521.48413	-227.21913	1026.44214	580.12451	-363.65341	717.01587	658.22394	-364.09775	654.00867	655.08710	-289.02982	710.51489	663.70673	-299.84634	648.38800	660.50507	-317.00217	535.43011	645.17590	-343.13019	507.24811	541.25018	-401.76355	386.47876	681.60822	-397.73303	338.10666	679.32159	-341.71152	382.31699	673.78143	-346.61945	335.85272	672.64819	-377.21259	96.31611	649.19714	-364.66592	109.44588	564.25000	-445.51334	68.38396	608.25946	-232.80707	40.95490	557.87225	-207.21843	63.96500	603.43811	-249.79306	34.06233	672.70056
1384	5.53200	-427.58401	1062.83044	413.67163	-234.56207	1024.01697	348.93695	-373.96472	714.45404	280.86722	-369.22095	651.71472	283.61160	-297.37766	713.47913	276.74368	-302.92944	651.96954	280.74387	-335.50806	543.02289	290.53775	-337.18085	522.30273	408.26837	-437.29141	370.17117	277.38870	-431.77457	327.03168	276.86774	-375.67047	370.71872	258.42828	-381.13196	327.52838	262.39517	-396.30597	97.19576	287.53748	-359.96942	108.27540	367.55099	-448.19449	68.56763	343.82150	-262.06909	40.98603	237.89282	-216.92923	65.26588	292.74054	-223.97997	45.56753	341.33615	-420.03885	1067.44763	521.46649	-227.17207	1026.47424	580.08533	-363.59079	717.04419	658.20453	-364.04565	654.04974	655.08447	-288.97583	710.52185	663.71277	-299.79425	648.40204	660.50500	-316.94180	535.47241	645.15479	-343.03995	507.29425	541.21967	-401.72498	386.50763	681.58258	-397.67398	338.12653	679.31329	-341.66235	382.34082	673.75684	-346.56375	335.87527	672.64325	-377.16635	96.33152	649.18176	-364.63651	109.47079	564.23999	-445.45364	68.37810	608.23108	-232.80342	40.98095	557.85730	-207.17448	64.01521	603.43292	-249.75441	34.08893	672.69104
1385	5.53600	-427.57272	1062.82703	413.63745	-234.59822	1024.02380	348.89868	-373.98462	714.44885	280.85965	-369.24060	651.71283	283.59952	-297.41663	713.50488	276.71106	-302.92706	651.96967	280.72714	-335.52344	543.03796	290.52386	-337.18530	522.31677	408.24298	-437.27979	370.17197	277.37253	-431.82922	327.02240	276.88037	-375.67096	370.74341	258.42062	-381.20325	327.50931	262.37552	-396.28137	97.19492	287.52292	-359.97675	108.30362	367.55368	-447.71869	68.38334	343.29736	-262.07877	40.99145	237.89688	-216.91571	65.27992	292.72995	-224.04514	45.57664	341.37103	-420.03101	1067.44775	521.45667	-227.18138	1026.47778	580.06683	-363.58218	717.05774	658.19287	-364.03769	654.04041	655.06635	-288.96829	710.51935	663.68573	-299.78586	648.41516	660.46802	-316.91031	535.49359	645.13507	-343.00513	507.33618	541.16113	-401.70273	386.51639	681.58771	-397.69174	338.15314	679.31781	-341.64291	382.38077	673.73938	-346.55215	335.90292	672.61810	-377.16064	96.35312	649.16510	-364.64804	109.46673	564.23187	-445.43689	68.37479	608.22345	-232.78900	40.98358	557.85938	-207.15610	64.02935	603.40332	-249.77165	34.09090	672.68469
